<?xml version="1.0" encoding="utf-8"?>
<!-- Generator: Adobe Illustrator 26.0.3, SVG Export Plug-In . SVG Version: 6.00 Build 0)  -->
<svg version="1.1" id="Layer_1" xmlns="http://www.w3.org/2000/svg" xmlns:xlink="http://www.w3.org/1999/xlink" x="0px" y="0px"
	 viewBox="0 0 297 297" style="enable-background:new 0 0 297 297;" xml:space="preserve">
<style type="text/css">
	.st0{fill:#F2F2F2;}
</style>
<g>
	<g>
		<g>
			<path class="st0" d="M229.6,145.7l4.3-51.2h7.5c5.6,0,10.2-4.6,10.2-10.2V65.7c0-17.6-14.3-31.9-31.9-31.9H184v-4.7
				C184,13,171,0,155,0h-29.8c-16,0-29.1,13-29.1,29.1v4.7H60.5c-17.6,0-31.9,14.3-31.9,31.9v18.7c0,5.6,4.6,10.2,10.2,10.2h7.5
				l13.9,166.7c1.7,20,18.7,35.7,38.8,35.7h82.1c19.8,0,36.7-15.3,38.7-35c27.7-5.7,48.5-30.3,48.5-59.6
				C268.4,176.6,252.2,154.6,229.6,145.7z M116.6,29.1c0-4.7,3.9-8.6,8.6-8.6H155c4.7,0,8.6,3.9,8.6,8.6v4.7h-47V29.1z M49.1,74.1
				v-8.4c0-6.3,5.1-11.5,11.5-11.5h159.1c6.3,0,11.5,5.1,11.5,11.5v8.4H49.1z M181.1,276.6H99c-9.5,0-17.6-7.4-18.4-17l-13.8-165
				h146.5l-3.9,47.1c-0.6,0-1.2,0-1.8,0c-33.5,0-60.8,27.3-60.8,60.8c0,30.6,22.8,56.1,52.3,60.2
				C196.9,270.6,189.6,276.6,181.1,276.6z M207.5,242.8c-22.3,0-40.4-18.1-40.4-40.4s18.1-40.4,40.4-40.4s40.4,18.1,40.4,40.4
				S229.8,242.8,207.5,242.8z"/>
			<path class="st0" d="M222,202.4l9.6-9.6c4-4,4-10.5,0-14.5c-4-4-10.5-4-14.5,0l-9.6,9.6l-9.6-9.6c-4-4-10.5-4-14.5,0
				c-4,4-4,10.5,0,14.5l9.6,9.6l-9.6,9.6c-4,4-4,10.5,0,14.5c2,2,4.6,3,7.2,3s5.2-1,7.2-3l9.6-9.6l9.6,9.6c2,2,4.6,3,7.2,3
				c2.6,0,5.2-1,7.2-3c4-4,4-10.5,0-14.5L222,202.4z"/>
		</g>
	</g>
</g>
</svg>
